<svg width="9" height="10" viewBox="0 0 9 10" fill="none" xmlns="http://www.w3.org/2000/svg">
<path fill-rule="evenodd" clip-rule="evenodd" d="M1.59092 1.12098C1.32313 0.853196 0.888962 0.853195 0.621173 1.12098C0.353385 1.38877 0.353385 1.82294 0.621173 2.09073L2.82336 4.29292C3.21389 4.68344 3.21389 5.31661 2.82336 5.70713L0.62123 7.90927C0.353442 8.17705 0.353442 8.61122 0.62123 8.87901C0.889018 9.1468 1.32319 9.1468 1.59098 8.87901L3.79311 6.67688C4.18363 6.28636 4.8168 6.28635 5.20732 6.67688L7.4094 8.87895C7.67719 9.14674 8.11136 9.14674 8.37914 8.87896C8.64693 8.61117 8.64693 8.177 8.37915 7.90921L6.17707 5.70713C5.78654 5.31661 5.78654 4.68344 6.17707 4.29292L8.3792 2.09079C8.64699 1.823 8.64699 1.38883 8.3792 1.12104C8.11141 0.853252 7.67724 0.853252 7.40946 1.12104L5.20732 3.32317C4.8168 3.7137 4.18363 3.7137 3.79311 3.32317L1.59092 1.12098Z" fill="#FF8303"/>
</svg>
