<svg width="20" height="19" viewBox="0 0 20 19" fill="none" xmlns="http://www.w3.org/2000/svg">
<path fill-rule="evenodd" clip-rule="evenodd" d="M10.8 1C10.8 0.447715 10.3523 0 9.8 0H9.4C8.84771 0 8.4 0.447716 8.4 1V6.95C8.4 7.50229 7.95228 7.95 7.4 7.95H1C0.447715 7.95 0 8.39772 0 8.95V9.22143C0 9.77371 0.447715 10.2214 1 10.2214H7.4C7.95228 10.2214 8.4 10.6691 8.4 11.2214V17.1714C8.4 17.7237 8.84771 18.1714 9.4 18.1714H9.8C10.3523 18.1714 10.8 17.7237 10.8 17.1714V11.2214C10.8 10.6691 11.2477 10.2214 11.8 10.2214H18.2C18.7523 10.2214 19.2 9.77371 19.2 9.22143V8.95C19.2 8.39772 18.7523 7.95 18.2 7.95H11.8C11.2477 7.95 10.8 7.50229 10.8 6.95V1Z" fill="#FF8303"/>
</svg>
