<svg width="13" height="13" viewBox="0 0 13 13" fill="none" xmlns="http://www.w3.org/2000/svg">
<path fill-rule="evenodd" clip-rule="evenodd" d="M2.1762 0.738506C1.78567 0.347982 1.15251 0.347982 0.761982 0.738506L0.738736 0.761753C0.348211 1.15228 0.348211 1.78544 0.738735 2.17597L4.35568 5.79291C4.7462 6.18343 4.7462 6.81659 4.35568 7.20712L0.738749 10.824C0.348224 11.2146 0.348224 11.8477 0.738749 12.2383L0.761995 12.2615C1.15252 12.652 1.78568 12.652 2.17621 12.2615L5.79314 8.64458C6.18366 8.25406 6.81682 8.25405 7.20735 8.64458L10.8242 12.2614C11.2147 12.652 11.8479 12.652 12.2384 12.2614L12.2617 12.2382C12.6522 11.8477 12.6522 11.2145 12.2617 10.824L8.64481 7.20712C8.25428 6.8166 8.25428 6.18343 8.64481 5.79291L12.2617 2.17604C12.6522 1.78552 12.6522 1.15235 12.2617 0.761827L12.2384 0.738581C11.8479 0.348057 11.2147 0.348057 10.8242 0.738581L7.20735 4.35545C6.81683 4.74597 6.18366 4.74597 5.79314 4.35545L2.1762 0.738506Z" fill="#FF8303"/>
</svg>
